<?xml version="1.0" encoding="utf-8"?>
<!-- Generator: Adobe Illustrator 16.0.0, SVG Export Plug-In . SVG Version: 6.00 Build 0)  -->
<!DOCTYPE svg PUBLIC "-//W3C//DTD SVG 1.1//EN" "http://www.w3.org/Graphics/SVG/1.1/DTD/svg11.dtd">
<svg version="1.1" id="Layer_1" xmlns="http://www.w3.org/2000/svg" xmlns:xlink="http://www.w3.org/1999/xlink" x="0px" y="0px"
	 width="222px" height="56px" viewBox="0 0 222 56" enable-background="new 0 0 222 56" xml:space="preserve">
<g>
	<path fill="#FFFFFF" d="M96.128,29.483c-0.686-1.066-1.545-1.873-2.58-2.418c-1.031-0.544-2.267-1.021-3.701-1.43l-2.323-0.646
		c-0.945-0.271-1.649-0.511-2.121-0.715c-0.474-0.204-0.819-0.46-1.044-0.768c-0.228-0.305-0.338-0.718-0.338-1.24
		c0-0.772,0.234-1.362,0.708-1.771c0.47-0.408,1.301-0.612,2.491-0.612c0.065,0,0.132-0.013,0.2-0.018h7.814v-5.154H87.22
		c-2.92,0-5.182,0.691-6.786,2.074c-1.605,1.386-2.407,3.404-2.407,6.06c0,1.612,0.35,2.927,1.045,3.949
		c0.695,1.021,1.536,1.787,2.523,2.299c0.987,0.51,2.156,0.959,3.503,1.344l2.291,0.646c1.412,0.387,2.394,0.766,2.946,1.14
		c0.549,0.375,0.825,0.938,0.825,1.688c0,0.746-0.309,1.348-0.926,1.804c-0.619,0.453-1.589,0.728-2.914,0.728h-8.723v5.127h8.723
		c3.054,0,5.45-0.71,7.19-2.128c1.74-1.42,2.62-3.365,2.641-5.838C97.152,31.923,96.812,30.549,96.128,29.483z"/>
	<g>
		<path fill="#FFFFFF" d="M108.909,20.954c1.132-0.713,2.428-1.071,3.888-1.071c0.043,0,0.082-0.013,0.121-0.018h5.23v-5.154h-5.371
			v0.004c-0.053,0-0.096-0.004-0.15-0.004c-2.896,0-5.353,0.589-7.375,1.77c-2.019,1.179-3.535,2.784-4.545,4.815
			c-1.011,2.032-1.516,4.318-1.516,6.858c0,4.176,1.118,7.455,3.35,9.839c2.233,2.382,5.596,3.575,10.085,3.575h5.521v-5.174h-5.521
			c-2.291,0-4.082-0.756-5.372-2.266c-1.29-1.508-1.934-3.512-1.934-6.008c0-1.565,0.313-2.972,0.941-4.222
			C106.892,22.652,107.774,21.67,108.909,20.954z"/>
		<g>
			<path fill="#FFFFFF" d="M170.691,38.181c-1.865-1.854-2.797-4.488-2.797-7.906V14.902H174v15.372c0,1.833,0.424,3.214,1.271,4.14
				c0.846,0.927,2.117,1.391,3.816,1.391c1.695,0,2.965-0.464,3.816-1.391c0.848-0.926,1.27-2.307,1.27-4.14V14.902h6.109v15.372
				c0,3.418-0.93,6.052-2.783,7.906c-1.854,1.854-4.658,2.779-8.412,2.779C175.355,40.96,172.559,40.034,170.691,38.181z"/>
			<path fill="#FFFFFF" d="M10.379,24.999L4.865,40.956h6.105l0.957-2.77h-0.004l-3.885-2.453h4.729h9.941l1.796,5.223h6.106
				l-9.024-26.014h-7.733L10.379,24.999 M14.532,30.511l3.189-9.362l3.223,9.362H14.532z"/>
			<path fill="#FFFFFF" d="M48.148,30.944c3.415-1.109,5.124-3.696,5.124-7.607c0-5.496-3.27-8.357-9.805-8.357H33.054v25.977h6.107
				v-6.922l-0.012,0.005l-3.885-2.452h3.885h0.012h2.847l5.496,9.369h6.783L48.148,30.944z M43.467,26.432h-4.306v-6.297h4.306
				c1.244,0,2.236,0.248,2.824,0.747c0.587,0.496,0.883,1.391,0.883,2.455C47.174,25.35,45.886,26.432,43.467,26.432z"/>
			<polygon fill="#FFFFFF" points="55.661,14.979 55.661,20.203 62.681,20.203 62.681,40.956 68.787,40.956 68.787,22.646 
				68.77,22.647 64.884,20.195 68.77,20.195 75.806,20.203 75.806,14.979 			"/>
			<polygon fill="#FFFFFF" points="128.039,35.733 124.139,35.731 128.023,33.268 128.039,33.272 128.039,14.979 121.93,14.979 
				121.93,40.956 137.398,40.956 137.398,35.733 			"/>
			<path fill="#FFFFFF" d="M213.734,18.253c-2.387-2.182-5.932-3.273-10.635-3.273h-9.055v25.977h9.055
				c4.729,0,8.277-1.072,10.65-3.221c2.375-2.147,3.564-5.461,3.564-9.714C217.314,23.793,216.119,20.434,213.734,18.253z
				 M209.203,33.953c-1.285,1.233-3.322,1.85-6.104,1.85h-2.951v-13.23l-0.004,0.001l-3.883-2.452h3.883l2.955,0.014
				c2.736,0,4.762,0.61,6.07,1.831c1.311,1.221,1.969,3.308,1.969,5.955C211.139,30.634,210.494,32.722,209.203,33.953z"/>
		</g>
	</g>
</g>
<linearGradient id="SVGID_1_" gradientUnits="userSpaceOnUse" x1="158.9053" y1="14.7363" x2="158.9053" y2="42.1846">
	<stop  offset="0" style="stop-color:#4C35FC"/>
	<stop  offset="1" style="stop-color:#F6036E"/>
</linearGradient>
<polygon fill="url(#SVGID_1_)" points="163.377,20.562 159.676,22.753 154.434,15.396 "/>
<linearGradient id="SVGID_2_" gradientUnits="userSpaceOnUse" x1="151.7725" y1="14.7358" x2="151.7725" y2="42.185">
	<stop  offset="0" style="stop-color:#4C35FC"/>
	<stop  offset="1" style="stop-color:#F6036E"/>
</linearGradient>
<polygon fill="url(#SVGID_2_)" points="151.771,14.291 157.979,23.003 145.566,23.002 "/>
<linearGradient id="SVGID_3_" gradientUnits="userSpaceOnUse" x1="144.6377" y1="14.7354" x2="144.6377" y2="42.1872">
	<stop  offset="0" style="stop-color:#4C35FC"/>
	<stop  offset="1" style="stop-color:#F6036E"/>
</linearGradient>
<polygon fill="url(#SVGID_3_)" points="149.111,15.395 143.873,22.752 140.164,20.56 "/>
<linearGradient id="SVGID_4_" gradientUnits="userSpaceOnUse" x1="141.2578" y1="14.7358" x2="141.2578" y2="42.186">
	<stop  offset="0" style="stop-color:#4C35FC"/>
	<stop  offset="1" style="stop-color:#F6036E"/>
</linearGradient>
<polygon fill="url(#SVGID_4_)" points="139.41,21.889 143.105,24.075 139.41,32.178 "/>
<linearGradient id="SVGID_5_" gradientUnits="userSpaceOnUse" x1="145.0762" y1="14.7368" x2="145.0762" y2="42.186">
	<stop  offset="0" style="stop-color:#4C35FC"/>
	<stop  offset="1" style="stop-color:#F6036E"/>
</linearGradient>
<polygon fill="url(#SVGID_5_)" points="144.17,25.419 150.359,35.938 139.793,35.031 "/>
<linearGradient id="SVGID_6_" gradientUnits="userSpaceOnUse" x1="146.5059" y1="14.7363" x2="146.5059" y2="42.1857">
	<stop  offset="0" style="stop-color:#4C35FC"/>
	<stop  offset="1" style="stop-color:#F6036E"/>
</linearGradient>
<polygon fill="url(#SVGID_6_)" points="142.002,36.753 151.004,37.531 151.01,41.957 "/>
<linearGradient id="SVGID_7_" gradientUnits="userSpaceOnUse" x1="151.7715" y1="14.7354" x2="151.7715" y2="42.1865">
	<stop  offset="0" style="stop-color:#4C35FC"/>
	<stop  offset="1" style="stop-color:#F6036E"/>
</linearGradient>
<polygon fill="url(#SVGID_7_)" points="151.77,35.321 145.424,24.53 158.119,24.531 "/>
<linearGradient id="SVGID_8_" gradientUnits="userSpaceOnUse" x1="157.0361" y1="14.7373" x2="157.0361" y2="42.1857">
	<stop  offset="0" style="stop-color:#4C35FC"/>
	<stop  offset="1" style="stop-color:#F6036E"/>
</linearGradient>
<polygon fill="url(#SVGID_8_)" points="152.537,41.957 152.533,37.531 157.014,37.144 161.539,36.758 "/>
<linearGradient id="SVGID_9_" gradientUnits="userSpaceOnUse" x1="158.4619" y1="14.7363" x2="158.4619" y2="42.186">
	<stop  offset="0" style="stop-color:#4C35FC"/>
	<stop  offset="1" style="stop-color:#F6036E"/>
</linearGradient>
<polygon fill="url(#SVGID_9_)" points="153.178,35.938 154.088,34.397 159.371,25.42 163.746,35.036 "/>
<linearGradient id="SVGID_10_" gradientUnits="userSpaceOnUse" x1="162.2822" y1="14.7363" x2="162.2822" y2="42.1865">
	<stop  offset="0" style="stop-color:#4C35FC"/>
	<stop  offset="1" style="stop-color:#F6036E"/>
</linearGradient>
<polygon fill="url(#SVGID_10_)" points="164.127,32.181 160.438,24.076 164.127,21.892 "/>
</svg>
