<svg width="614" height="531" viewBox="0 0 614 531" fill="none" xmlns="http://www.w3.org/2000/svg">
<path d="M213.329 98.6482C205.217 100.271 195.693 112.842 189.676 118.096C178.835 127.564 167.129 136.35 158.927 148.32C137.821 179.124 130.648 216.523 123.448 252.524C115.616 291.682 106.574 340.463 116.352 380.119C123.523 409.2 144.605 430.882 168.389 447.399C227.122 488.186 304.609 493.654 373.644 493.654C402.957 493.654 429.735 492.395 455.773 476.965C474.668 465.768 500.457 449.8 510.832 429.791C535.432 382.347 532.645 321.348 532.645 269.87C532.645 243.59 531.962 217.76 520.556 193.523C510.104 171.312 494.385 150.672 478.243 132.288C465.021 117.229 452.035 100.131 434.617 89.7126C412.573 76.5275 387.079 68.9839 362.212 63.3001C316.137 52.7687 261.516 51.9367 214.381 56.5984C188.864 59.122 159.547 67.8973 138.822 83.2738C112.526 102.784 90.5039 124.015 69.046 148.845C37.3464 185.526 26.4699 231.694 18.5862 278.28C14.3327 303.414 12.5781 340.282 20.6887 364.613C32.6045 400.361 59.9108 425.927 90.8593 445.822C122.967 466.463 157.278 484.843 192.042 500.487C229.019 517.127 269.558 514.942 308.993 514.942C370.317 514.942 427.042 498.051 482.448 472.366C506.043 461.428 547.293 450.211 562.212 426.111C575.113 405.271 590.74 386.199 594.669 361.197C599.966 327.486 598.874 294.006 598.874 259.752C598.874 236.377 599.869 213.869 589.413 192.209C578.153 168.885 561.292 150.991 539.741 136.493C510.907 117.096 475.394 106.146 441.975 97.597C409.405 89.2649 378.842 74.7384 345.786 67.8993C281.685 54.637 200.63 63.6482 154.723 115.205C132.124 140.585 110.709 168.731 100.058 201.276C87.117 240.817 87.9684 281.777 87.9684 322.826C87.9684 364.614 95.9382 409.536 126.339 441.092C158.992 474.985 201.318 491.925 247.626 497.07C287.103 501.457 328.797 497.149 366.549 484.718C396.261 474.935 420.57 456.064 443.947 435.704C470.065 412.956 481.574 391.588 498.48 362.511C515.928 332.5 527.051 307.54 517.402 271.578C498.944 202.78 478.345 104.002 394.144 90.2383C304.751 75.626 192.416 136.019 168.389 225.455C159.299 259.288 156.562 294.341 156.562 329.265C156.562 357.83 158.542 387.256 178.376 409.817C196.893 430.881 222.017 439.279 249.072 443.457C294.86 450.527 341.198 450.321 383.237 429.791C415.914 413.832 436.214 396.333 442.764 360.671C451.55 312.836 454.257 260.499 411.752 227.557C373.925 198.241 320.313 180.378 272.462 184.325C227.043 188.071 213.736 250.66 207.942 286.953C203.407 315.356 204.016 338.68 225.287 358.832C246.416 378.848 275.216 386.201 303.474 390.238C328.414 393.8 357.566 393.912 381.923 386.952C414.721 377.582 424.096 345.01 432.251 315.205C442.143 279.057 461.583 229.46 428.309 199.305C395.556 169.623 343.825 156.542 301.109 153.576C272.471 151.587 240.705 149.996 216.22 167.768C184.94 190.471 170.754 244.207 170.754 279.725C170.754 333.105 188.834 400.061 248.283 415.599C304.334 430.248 378.725 410.968 412.935 362.38C435.1 330.899 444.095 291.603 448.546 253.97C451.362 230.16 456.275 201.903 450.911 178.149C446.112 156.896 424.491 140.451 405.445 132.288C371.147 117.589 327.289 119.865 291.384 125.849C259.858 131.104 227.855 133.453 196.772 141.224C149.714 152.988 84.5347 184.681 61.9501 231.105C32.5328 291.574 21.7915 386.507 86.9172 428.477C148.24 467.996 242.902 465.982 311.621 453.444C353.627 445.78 394.82 427.499 433.04 409.029C463.675 394.223 498.465 377.843 524.367 355.284C544.862 337.433 555.069 314.866 561.555 288.924C571.653 248.531 538.53 215.427 511.226 191.158C482.669 165.773 445.853 150.685 407.547 150.685C396.959 150.685 392.208 153.188 385.734 161.723C366.463 187.125 345.629 213.665 332.646 242.932C322.917 264.863 319.433 290.152 317.928 313.891C316.022 343.964 319.078 370.126 353.014 377.228C385.696 384.069 465.857 386.118 465.366 337.018C464.85 285.455 422.148 233.822 369.439 231.105C354.585 230.339 342.886 230.24 333.96 243.457C324.235 257.858 322.133 274.033 322.133 291.026C322.133 294.219 320.14 303.638 324.762 304.298C333.449 305.539 340.517 304.023 343.421 294.968C349.509 275.989 327.276 262.996 313.461 255.547C288.81 242.255 261.233 230.743 232.646 233.602C220.811 234.785 225.156 263.734 225.156 270.658C225.156 298.368 219.759 342.204 249.86 357.255C287.383 376.016 346.474 356.515 377.324 332.813C401.794 314.013 414.533 284.418 411.621 253.838C409.876 235.516 397.891 219.052 379.952 213.628C369.371 210.429 350.011 205.297 341.581 215.599C329.358 230.539 326.032 259.069 322.659 277.36C321.228 285.122 314.106 314.799 321.214 321.907C329.408 330.101 349.411 310.086 353.802 305.481C366.584 292.076 376.581 270.406 372.33 251.473C366.743 226.582 334.399 224.802 314.118 222.958C296.743 221.379 268.78 215.356 265.892 239.252C263.659 257.726 262.416 282.481 266.417 300.75C272.087 326.632 299.296 321.479 312.409 305.087C325.926 288.191 332.747 258.803 331.069 237.413C328.732 207.62 289.003 200.789 266.417 193.26C258.119 190.494 244.364 183.144 235.143 186.69C227.747 189.534 232.322 220.343 232.778 225.849C234.541 247.177 243.54 271.844 265.366 279.725C292.94 289.682 319.477 283.477 334.617 257.649C355.575 221.898 363.324 151.246 326.338 122.301C318.469 116.142 308.397 113.005 298.48 112.84C262.759 112.245 227.291 116.371 192.83 125.981C137.753 141.339 111.238 186.375 89.5453 236.493C71.0174 279.299 67.7398 333.755 108.205 364.613C168.506 410.598 260.698 419.213 333.829 417.833C399.74 416.589 449.212 388.484 502.159 353.05C534.12 331.661 558.592 310.174 569.045 271.578C577.813 239.205 585.981 196.466 579.426 163.037C575.886 144.985 560.016 120.055 550.385 104.561C536.894 82.8576 513.776 62.8088 492.435 48.9769C455.567 25.0809 409.402 28.3552 368.257 19.4106C333.607 11.8781 295.126 15.4464 260.241 19.4106C224.714 23.4477 186.448 31.7922 156.037 51.3422C138.638 62.5267 119.206 74.7698 104.526 89.4498C87.7531 106.222 78.8201 133.505 70.36 155.153C57.8363 187.199 56.8051 220.256 57.2195 254.233C57.5174 278.667 67.0423 323.566 91.6478 336.361C128.08 355.306 176.336 358.232 215.695 346.479C293.385 323.28 369.019 281.506 438.822 240.698C454.228 231.691 480.967 216.168 484.945 196.94C488.304 180.703 485.466 160.852 485.339 144.377C485.114 115.145 472.276 75.1861 441.45 64.4827C389.611 46.483 331.717 61.0124 280.084 72.6299C269.669 74.9731 261.277 77.6621 253.014 84.4564C230.666 102.831 210.524 126.535 190.728 147.531C154.769 185.669 146.083 227.923 150.78 279.594C153.507 309.59 163.769 339.328 183.763 362.248C196.503 376.852 209.892 395.277 226.996 405.086C266.832 427.934 311.283 407.881 350.254 394.443C367.298 388.566 383.05 380.024 400.057 374.206C410.756 370.546 422.283 369.289 432.777 365.402C437.258 363.742 439.95 360.326 440.924 355.941C444.841 338.314 451.374 321.676 459.321 305.481C471.537 280.589 480.609 259.531 480.609 231.631C480.609 218.256 480.202 205.56 478.243 192.341C477.82 189.483 474.161 171.732 472.987 174.864C462.838 201.927 478.855 243.583 486.259 269.213C491.788 288.351 497.549 314.318 490.99 333.996C483.87 355.356 464.367 376.049 446.969 389.581C425.217 406.498 400.298 421.211 376.798 435.573C374.448 437.009 367.713 439.252 373.119 439.252C392.714 439.252 413.586 427.365 430.149 418.753C461.148 402.633 490.977 384.34 515.563 359.357C528.642 346.067 532.522 329.415 536.062 311.394C543.046 275.839 549.706 242.665 549.203 206.401C548.937 187.248 547.108 169.999 536.193 154.233C527.242 141.303 514.743 131.097 506.627 117.571" stroke="#F8E4D5" stroke-width="30" stroke-linecap="round"/>
<path d="M71.4112 138.858C66.9777 143.846 69.0459 152.832 69.0459 158.963C69.0459 177.287 63.0165 193.344 58.5335 210.869C52.5226 234.366 45.3796 257.308 39.4796 280.908C29.0542 322.61 44.8459 372.658 74.3022 403.247C105.214 435.348 149.271 438.017 190.728 445.165C213.174 449.035 237.877 446.348 260.635 446.348C283.869 446.348 305.571 444.595 328.047 438.069C389.758 420.153 446.987 395.708 489.544 344.64C513.337 316.088 524.11 275.275 529.097 239.252C533.001 211.061 539.209 179.301 533.434 150.948C529.505 131.659 514.744 111.609 502.948 96.1515C473.122 57.0696 430.555 35.25 381.266 34.785C327.983 34.2823 280.284 52.011 234.617 79.7258C195.121 103.696 153.38 124.754 116.352 152.525C94.4761 168.931 86.9919 184.866 77.9815 209.817C71.805 226.922 69.8066 243.867 69.1773 262.117C67.9652 297.268 67.9986 332.639 76.2733 366.979C87.9144 415.29 119.424 471.025 169.571 487.741C216.517 503.389 269.914 506.819 317.928 493.654C357.439 482.82 394.096 467.14 432.12 452.261C467.595 438.379 501.91 422.681 529.097 395.494C548.096 376.495 553.933 346.896 553.933 320.987C553.933 296.498 550.117 272.914 535.536 252.393C506.759 211.891 474.451 169.092 433.565 140.172C381.177 103.117 296.459 92.9603 243.159 133.208C172.618 186.473 111.801 274.524 90.4651 360.934C84.9837 383.134 76.0958 419.274 88.3626 441.354C98.3309 459.297 123.418 469.331 141.45 475.914C209.332 500.696 297.875 501.84 366.811 480.776C389.098 473.966 423.988 464.156 438.033 443.457C452.651 421.915 468.124 386.799 454.59 361.722C438.407 331.735 395.576 332.495 366.023 340.041C343.26 345.852 315.513 351.032 295.327 363.562C285.073 369.926 283.384 378.188 284.42 389.58C286.158 408.704 318.405 412.246 332.646 409.817C354.577 406.077 372.92 391.434 389.413 377.491C410.297 359.837 431.377 341.115 444.604 316.782C467.228 275.159 469.41 238.814 428.572 210.343C393.867 186.147 350.72 173.779 308.73 172.498C278.294 171.57 245.882 171.128 217.929 184.85C189.686 198.715 166.645 221.621 148.678 247.137C122.818 283.86 86.7976 377.337 143.159 405.349C189.003 428.134 255.036 392.404 290.333 365.402C326.627 337.637 357.099 300.205 356.562 252.393C356.183 218.729 331.159 195.949 302.16 183.011C282.543 174.259 249.756 167.352 231.201 182.354C203.392 204.837 195.1 256.293 198.349 289.712C200.917 316.119 225.249 331.205 251.174 322.564C281.369 312.499 301.061 264.788 300.846 235.31C300.546 194.246 264.166 166.335 226.996 156.992C169.122 142.447 126.032 169.016 106.102 224.535C91.8455 264.251 74.5367 347.625 131.332 363.037C176.83 375.383 235.822 368.203 277.455 346.742C318.632 325.517 331.206 272.581 299.269 237.281C279.35 215.265 252.03 199.662 222.002 198.122C191.334 196.55 200.648 260.267 203.737 277.623C216.672 350.306 299.044 336.047 345.655 308.372C392.56 280.522 445.444 230.124 458.533 174.864C469.14 130.077 420.865 112.012 386.259 103.773C367.785 99.3744 347.566 94.3688 328.704 99.6994C306.268 106.04 287.916 123.588 272.199 139.91C230.673 183.033 192.963 238.01 184.683 298.648C176.67 357.331 226.383 382.926 278.244 388.004C315.881 391.688 353.147 386.056 386.522 367.636C412.189 353.47 443.984 329.58 448.809 298.122C455.883 251.995 418.174 205.231 381.266 183.011C352.947 165.961 315.287 155.67 282.055 158.044C266.928 159.124 256.261 166.339 248.283 179.331C226.927 214.111 214.791 258.605 207.679 298.385C203.638 320.99 199.12 354.354 211.227 375.651C221.563 393.833 246.449 400.203 265.629 401.801C318.418 406.2 379.057 374.781 399.006 324.14C408.9 299.024 411.169 266.919 403.211 240.961C393.594 209.593 361.792 187.329 334.486 172.235C293.394 149.523 239.743 136.026 192.567 136.493C160.008 136.815 161.102 183.983 157.088 207.978C152.495 235.427 148.853 263.952 151.175 291.815C153.628 321.257 172.339 337.06 200.452 344.64C262.285 361.311 328.885 332.033 373.907 290.763C408.052 259.464 403.943 216.037 371.279 186.164C343.468 160.731 310.844 147.407 273.776 142.275C248.859 138.825 239.601 156.032 226.996 175.915C206.351 208.479 190.566 248.051 194.933 287.347C199.517 328.603 264.763 337.654 297.166 333.996C353.98 327.581 384.74 287.446 387.048 233.602C388.576 197.941 373.993 176.672 345.524 156.598C312.61 133.39 275.233 111.057 233.96 108.109C203.984 105.968 167.519 103.68 139.874 118.885C101.03 140.249 78.1214 182.591 61.4244 222.17C46.2999 258.02 32.5501 318.457 56.6938 353.575C87.6829 398.65 158.575 402.564 208.599 406.138" stroke="#F9E7D9" stroke-width="30" stroke-linecap="round"/>
<path d="M151.96 87.0975C142.45 87.0975 136.333 102.017 132.009 108.863C120.247 127.485 106.724 145.506 101.821 167.294C98.3897 182.546 95.7411 197.506 94.2423 213.093C91.9908 236.509 90.7841 264.639 98.3882 287.07C105.317 307.511 118.386 327.861 134.47 342.197C157.728 362.928 185.414 373.935 215.12 382.037C261.743 394.752 312.468 395.271 360.42 393.503C392.075 392.335 418.963 385.453 445.539 368.368C466.781 354.713 485.622 331.789 495.937 308.836C505.483 287.598 510.343 264.128 513.298 241.142C516.162 218.87 518.364 194.84 509.411 173.642C494.485 138.299 466.371 102.921 429.28 89.6238C387.606 74.6842 342.578 75.4372 299.009 75.4372C266.431 75.4372 236.661 85.0271 209.096 102.256C186.76 116.215 164.158 133.721 146.778 153.69C130.45 172.45 113.37 194.929 109.984 220.024C108.027 234.523 107.276 251.1 110.761 265.369C113.093 274.919 117.028 284.283 120.478 293.484" stroke="#F6DFCD" stroke-width="30" stroke-linecap="round"/>
<path d="M184.609 75.4373C159.451 75.4373 141.951 100.087 126.049 115.989C101.735 140.303 83.6051 176.648 77.335 210.437C71.4188 242.318 79.5691 273.192 94.2423 301.452C100.177 312.881 106.688 323.561 113.741 334.295C120.678 344.851 133.532 353.824 143.798 360.854C160.302 372.155 183.289 377.862 202.682 381.454C229.604 386.439 257.083 388.443 284.434 386.053C321.806 382.787 361.157 370.105 394.364 352.886C419.691 339.754 440.853 321.887 452.147 295.233C460.582 275.326 461.984 252.168 462.123 230.778C462.284 205.988 462.383 182.741 449.037 160.816C433.009 134.484 402.007 113.4 372.857 104.782C356.346 99.9007 339.32 98.8378 322.2 98.7578C307.931 98.6911 294.395 98.3509 280.871 103.487C255.889 112.973 233.289 130.648 214.019 148.897C190.678 171.001 181.51 198.7 180.204 230.518C178.524 271.46 177.474 319.471 215.962 344.53C237.301 358.422 262.054 362.916 287.09 363.834C319.835 365.034 351.113 359.619 381.019 345.955C399.732 337.405 416.709 325.773 427.531 307.865C444.149 280.365 443.859 245.311 443.142 214.259C442.333 179.196 435.922 145.876 408.226 121.949C398.171 113.261 386.871 106.366 374.023 102.709C346.474 94.8685 314.039 91.6752 285.535 95.0006C263.425 97.5802 242.064 113.225 228.205 129.981C210.498 151.391 203.271 179.214 204.043 206.68C205.673 264.729 264.354 292.715 316.758 288.042C367.25 283.54 389.118 232.097 373.246 186.922C363.324 158.682 340.168 137.847 311.317 130.37C293.747 125.817 268.783 123.185 253.664 135.617C234.706 151.204 231.575 181.246 230.602 203.959C229.403 231.956 234.04 259.27 256.708 278.131C277.652 295.557 309.998 296.211 334.249 285.581C362.691 273.113 382.772 246.123 387.951 215.814C392.663 188.234 384.676 163.476 361.65 146.694C338.166 129.579 300.89 120.909 272.838 131.406C244.055 142.178 230.82 172.138 228.335 200.72C225.407 234.395 230.752 274.211 256.514 298.666C273.272 314.574 298.019 320.568 319.868 312.399C349.608 301.28 366.385 269.842 367.804 239.328C371.305 164.059 253.034 136.677 205.144 181.805C180.763 204.779 174.569 241.731 175.022 273.791C175.507 308.094 188.104 344.441 217.776 364.222C276.844 403.601 349.986 345.801 358.217 284.544C362.509 252.6 352.788 222.316 328.548 200.591C306.682 180.993 273.773 167.06 243.947 169.302C216.931 171.333 212.695 198.543 212.205 220.931C211.494 253.443 215.481 290.212 236.173 316.675C248.267 332.14 265.713 341.378 285.47 335.655C314.862 327.142 327.951 292.14 331.139 264.592C334.848 232.546 319.949 208.411 290.847 195.149C275.712 188.252 248.645 181.646 236.951 198.258C226.866 212.585 228.132 235.955 233.712 251.636C237.937 263.511 249.15 282.016 263.704 282.536C275.536 282.959 277.294 267.137 277.632 258.503C278.124 245.919 274.221 230.893 261.761 225.142C241.383 215.736 247.839 260.841 252.238 269.386C263.364 290.995 265.459 253.64 264.806 246.454C264.682 245.097 261.696 236.751 261.696 238.357C261.696 245.153 268.044 253.356 272.32 257.985C278.023 264.159 288.099 271.402 296.547 266.082C307.058 259.464 312.741 243.876 312.094 231.944C311.541 221.739 305.435 215.387 295.122 214.971C279.35 214.336 269.627 229.036 266.684 242.891C264.029 255.392 262.204 277.089 272.579 286.876C282.296 296.044 298.039 291.363 307.43 284.35C316.76 277.382 325.408 265.469 325.115 253.321C324.644 233.76 300.987 227.912 285.276 228.057C255.353 228.332 231.963 247.044 219.849 273.726C212.931 288.963 204.938 319.92 216.869 335.072C226.531 347.343 247.967 338.086 257.421 330.926C270.602 320.943 280.898 306.876 289.875 293.225C304.256 271.356 315.559 247.643 321.358 222.032C328.389 190.977 330.182 153.181 298.232 135.941C274.865 123.333 244.031 118.555 217.711 120.653C170.686 124.402 161.601 185.197 157.985 222.939C153.645 268.241 156.695 315.933 184.544 353.728C202.902 378.643 238.786 382.209 267.397 378.733C294.211 375.475 319.426 361.619 341.698 347.056C359.766 335.243 378.743 320.84 391.125 302.812C414.705 268.479 385.948 218.463 359.448 194.955C345.845 182.888 328.823 174.151 312.224 166.905C308.667 165.353 302.448 161.288 298.75 164.314C292.382 169.524 286.95 175.853 280.547 181.092C265.968 193.02 250.812 204.04 238.505 218.47C211.986 249.561 190.703 292.077 198.213 334.035C205.193 373.034 242.81 395.882 276.725 409.827C288.174 414.534 299.986 418.487 312.094 421.098C318.269 422.43 321.257 423.855 325.698 419.414" stroke="#F6DFCD" stroke-width="30" stroke-linecap="round"/>
<path d="M372.339 470.719C360.426 470.719 349.047 471.694 337.358 474.217C328.972 476.028 321.47 479.232 312.872 480.307C300.798 481.816 288.761 482.983 276.66 484.193C232.626 488.597 182.158 495.718 142.049 471.95C133.932 467.14 126.642 461.968 119.312 456.209C113.042 451.282 106.405 444.157 99.4895 440.403C85.4153 432.762 73.0916 417.866 64.5088 404.515C54.2484 388.555 50.5165 370.198 50.5165 351.267C50.5165 330.486 51.1461 309.136 55.7636 288.82C59.5602 272.115 62.6002 251.438 75.003 238.681C79.1239 234.442 82.2162 229.455 86.6632 225.595C95.3261 218.077 104.189 211.568 114 205.514C121.258 201.035 128.414 196.353 135.442 191.521C138.933 189.122 139.134 189.651 139.134 194.372" stroke="#F6DFCD" stroke-width="30" stroke-linecap="round"/>
<path d="M156.625 70.7731C154.278 71.0338 150.46 74.6671 148.398 76.0849C142.773 79.9516 138.159 85.8696 133.369 90.6602C127.309 96.7198 120.035 106.528 115.814 113.916C112.164 120.303 107.583 125.842 104.218 132.572C98.9519 143.105 92.9071 153.337 87.894 163.99C82.7685 174.882 79.5925 185.977 77.9828 197.934C75.5398 216.082 73.2995 235.584 75.7155 253.839C78.2869 273.267 89.895 288.715 99.4894 305.144C109.121 321.637 120.335 334.444 136.543 344.529C137.13 344.895 139.946 347.937 140.235 346.343C141.749 338.021 140.263 328.171 140.3 319.784C140.392 298.857 143.818 276.797 141.207 255.912C139.755 244.292 134.165 233.615 132.721 221.773C132.285 218.197 131.535 194.304 132.203 209.335C133.615 241.104 148.047 271.92 158.827 301.322C159.037 301.893 164.208 314.151 164.528 313.695C166.417 310.995 157.26 290.696 156.56 287.977C149.735 261.481 146.466 233.949 143.41 206.809C141.186 187.066 139.134 166.983 139.134 147.083C139.134 131.335 144.08 119.711 155.718 109.252C174.303 92.5487 195.023 79.2873 214.926 64.3599C281.786 14.2144 370.689 48.0086 428.049 95.5187C459.926 121.922 479.797 154.096 495.354 191.975C502.916 210.385 504.048 230.102 505.784 249.693C507.263 266.388 508.392 286.117 505.719 302.747C502.537 322.545 497.528 343.657 482.852 357.874C475.409 365.085 466.36 370.476 457.912 376.401C445.575 385.053 433.574 394.015 419.887 400.499C397.648 411.032 372.114 413.3 347.852 415.009C327.196 416.464 306.736 419.414 285.988 419.414C262.395 419.414 237.37 421.757 214.148 416.952C165.935 406.977 122.984 372.55 102.987 327.557C100.396 321.727 99.5886 326.727 101.433 329.242C105.67 335.02 111.266 339.559 115.814 345.048C123.535 354.367 128.224 366.33 135.183 376.271C161.963 414.529 202.55 454.991 253.469 442.605C278.462 436.526 302.655 424.892 327.123 416.823C350.295 409.181 374.551 401.528 394.493 387.024C413.702 373.054 433.673 358.535 447.612 338.958C454.229 329.665 457.991 319.612 459.078 308.253C460.767 290.609 461.15 272.156 459.791 254.487C457.538 225.198 446.255 197.733 426.494 175.845C408.647 156.075 385.176 137.461 357.828 134.516C323.978 130.87 319.233 182.465 319.997 205.773C320.523 221.807 324.766 233.557 337.876 243.345C351.361 253.412 368.202 258.794 384.453 262.39C404.836 266.899 428.477 269.498 428.308 242.826C428.201 225.89 420.702 205.961 403.822 199.036C390.404 193.531 385.41 237.97 384.647 244.834C384.237 248.523 382.156 258.221 388.663 257.985C401.088 257.533 412.591 234.353 417.814 226.048C421.338 220.445 460.071 160.25 444.114 154.727C424.624 147.98 430.378 194.542 431.158 202.534C433.905 230.652 456.605 262.665 483.111 273.402C490.982 276.59 500.419 279.362 509.023 279.362C514.119 279.362 514.067 271.132 514.594 267.572C515.874 258.909 515.69 250.258 515.76 241.531C515.817 234.342 517.22 227.213 516.861 220.024C516.324 209.287 511.74 200.112 508.181 190.226C504.698 180.552 497.932 173.322 491.856 165.221C480.89 150.599 468.312 139.337 452.73 129.657C418.105 108.148 375.857 101.406 336.451 94.0935C326.252 92.2008 317.59 88.2528 307.948 84.7653C291.193 78.705 269.939 87.2924 254.571 92.9275" stroke="#F6DFCD" stroke-width="30" stroke-linecap="round"/>
<path d="M154.293 62.6111C157.715 61.9889 161.063 59.2084 164.139 57.6879C171.091 54.2508 178.445 51.7884 185.516 48.6188C197.362 43.3084 209.769 38.2768 221.922 33.7196C240.323 26.8191 262.977 23.1863 282.555 22.9663C311.255 22.6438 339.991 19.6959 368.582 24.1323C389.582 27.391 412.844 30.7193 431.353 41.6874C453.956 55.0819 468.614 75.171 486.48 94.0289C502.923 111.386 515.873 134.019 523.857 156.476C535.123 188.161 538.862 224.147 541.931 257.467C543.348 272.86 542.578 288.526 542.578 303.978C542.578 308.815 542.578 313.652 542.578 318.488C542.578 321.195 543.446 326.553 541.412 321.468" stroke="#F6DFCD" stroke-width="30" stroke-linecap="round"/>
<path d="M554.239 275.993C554.239 288.094 552.693 301.352 554.498 313.306C556.357 325.624 558.903 338.792 558.903 351.267C558.903 366.958 560.552 383.393 554.757 398.296C550.824 408.408 543.827 418.105 538.173 427.317C529.104 442.097 514.08 448.258 500.342 457.634C493.154 462.54 484.259 464.556 476.115 467.221C465.542 470.682 454.89 474.311 444.114 477.068C413.215 484.972 382.388 492.233 351.351 499.287C337.658 502.399 321.044 503.368 307.042 503.368C291.37 503.368 276.719 503.144 261.308 500.129C242.567 496.462 225.795 489.414 207.93 482.963C191.949 477.192 175.392 469.195 161.289 459.707C137.988 444.032 117.688 423.623 99.7486 402.183C89.8606 390.366 80.163 379.131 74.3552 364.611C71.8206 358.275 66.8408 338.741 66.8408 345.566C66.8408 356.834 77.6198 370.557 83.8129 379.122C92.8973 391.685 106.027 404.272 119.571 412.159C124.814 415.212 129.975 418.255 135.118 421.487C137.451 422.954 142.114 428.648 142.114 425.892C142.114 424.238 135.221 418.206 134.211 417.082C126.495 408.498 119.405 399.398 111.668 390.847C99.3969 377.284 86.4035 364.414 75.6507 349.582C71.0636 343.255 65.0778 335.106 63.3427 327.298C62.944 325.504 61.6229 317.503 61.7232 317.582C66.5842 321.362 70.4099 327.169 74.6791 331.574C87.6469 344.953 101.921 356.568 116.721 367.85C155.549 397.45 194.782 432.911 241.744 448.565C277.431 460.46 311.941 467.733 349.537 461.391C397.613 453.282 438.461 428.579 477.799 400.693C497.987 386.383 517.096 367.874 530.141 346.732C535.495 338.054 535.582 329.57 535.582 319.654C535.582 311.159 534.889 319.396 533.898 323.153C529.448 340.016 526.053 357.907 520.424 374.393C516.816 384.958 514.209 394.183 507.339 403.09C501.452 410.721 491.487 415.17 483.111 419.414C468.801 426.665 455.526 433.783 439.968 438.071C420.177 443.525 397.984 444.939 377.521 445.067C362.681 445.16 347.236 446.343 332.629 443.253C316.79 439.902 300.967 434.394 286.636 426.864C266.709 416.394 259.329 400.124 258.328 378.344C256.68 342.502 271.384 311.616 289.81 281.823C309.295 250.319 339.115 226.727 371.432 209.206C401.37 192.975 433.253 191.281 463.807 207.263C481.907 216.73 493.84 232.35 502.221 250.665C505.014 256.768 508.764 271.117 508.764 256.819C508.764 215.971 498.467 174.435 483.046 136.654C474.114 114.768 459.258 83.1414 434.138 76.6034C419.509 72.7959 403.902 74.2713 388.922 74.2713C367.835 74.2713 345.027 71.829 324.273 75.9556C289.674 82.835 256.28 94.4288 224.707 109.965C200.808 121.725 179.434 138.88 156.819 152.848C147.342 158.702 138.505 165.2 129.353 171.505C124.829 174.621 120.218 177.592 117.045 182.193C108.776 194.182 104.882 208.861 98.3234 221.773C86.7506 244.557 78.6988 269.196 71.764 293.743C63.5336 322.876 58.0567 351.889 53.1076 381.583C52.4124 385.755 51.854 395.793 48.7027 398.944C46.4955 401.151 25.6113 359.694 23.957 355.283C18.0123 339.43 17.05 323.144 17.9326 306.375C19.0086 285.931 29.0378 263.628 35.9412 244.511C41.6212 228.781 47.8037 213.138 54.0145 197.611C65.3713 169.219 83.08 142.417 101.821 118.321C114.482 102.044 126.215 86.8339 143.798 75.4374C177.624 53.5134 218.826 49.7849 258.069 49.7849C276.134 49.7849 292.945 53.8754 310.475 57.8822C328.208 61.9355 346.18 64.6759 363.918 68.7003C392.747 75.2414 421.429 80.6277 449.879 88.8466C477.267 96.7585 501.294 110.954 522.173 130.305C541.448 148.17 550.227 171.799 559.81 195.538C568.867 217.976 572.621 242.597 572.895 266.665C573.089 283.749 574.066 301.548 571.729 318.488C569.382 335.503 569.592 353.062 566.482 369.858C565.157 377.014 565.125 392.301 559.162 397.519C558.742 397.886 559.095 392.619 559.162 392.077C560.064 384.762 561.426 377.492 562.401 370.182C565.488 347.024 565.67 323.612 568.296 300.415C571.203 274.738 572.215 249.351 573.478 223.587C574.472 203.315 575.492 182.005 573.802 161.723C569.768 113.313 536.016 81.6474 495.29 59.1778C479.876 50.6737 457.293 47.4528 439.968 47.4528C432.583 47.4528 425.199 47.4528 417.814 47.4528C408.166 47.4528 399.306 50.8913 390.412 54.449C354.876 68.6635 327.792 103.986 307.56 135.164C266.683 198.155 256.964 271.24 241.485 343.104C236.459 366.44 223.274 390.702 202.618 403.673C188.552 412.505 176.356 417.624 159.54 418.766C147.545 419.582 131.615 422.71 123.976 411.252" stroke="#F6DFCD" stroke-width="30" stroke-linecap="round"/>
<path d="M31.8601 231.684C31.8601 247.551 28.3621 262.659 28.3621 278.325C28.3621 298.562 34.604 318.302 39.7632 337.792C45.2165 358.394 55.8688 379.285 67.4238 397.26C83.7871 422.714 105.777 438.743 130.907 455.496C140.466 461.869 150.939 466.569 160.77 472.468C177.827 482.702 199.037 484.991 218.165 488.469C233.389 491.237 248.01 496.858 263.64 497.538C283.234 498.39 302.371 502.073 322.2 500.971C335.089 500.255 349.662 495.431 361.78 491.189C368.098 488.978 376.879 487.131 382.574 483.545C389.142 479.41 396.958 475.835 403.822 472.403C411.759 468.435 425.907 466.215 429.474 457.893" stroke="#F9E7D9" stroke-width="30" stroke-linecap="round"/>
<path d="M49.3505 217.692C49.3505 179.981 85.1996 157.877 104.737 129.657C122.309 104.275 148.064 84.0503 175.346 69.6072C205.043 53.885 240.745 52.5624 273.486 50.0439C312.452 47.0465 350.949 42.0164 389.829 48.6187C417.618 53.3375 453.769 64.3267 469.119 90.3365C476.166 102.278 477.281 113.368 477.281 126.742" stroke="#F9E7D9" stroke-width="30" stroke-linecap="round"/>
<path d="M423.644 60.279C450.702 60.279 476.406 65.8374 497.622 83.5994C516.776 99.6353 528.777 125.015 534.416 148.897C547.774 205.47 548.422 264 537.914 321.209C536.705 327.79 534.749 334.252 533.315 340.708C531.188 350.278 535.409 321.207 536.1 311.427C539.196 267.652 539.08 223.979 539.08 180.12C539.08 165.648 535.39 122.48 537.979 136.718C539.835 146.928 545.777 158.131 549.834 167.553C556.447 182.914 562.73 199.108 565.899 215.619C569.562 234.708 571.729 255.514 571.729 274.957C571.729 301.359 573.457 328.431 571.47 354.765C570.945 361.718 569.397 368.717 569.397 375.688C569.397 376.524 569.397 379.251 569.397 376.401C569.397 367.936 569.397 359.472 569.397 351.007C569.397 329.839 567.561 307.76 570.563 286.747C572.349 274.241 574.185 261.596 576.393 249.175C579.752 230.28 581.888 211.807 580.992 192.558C580.569 183.46 578.265 173.416 574.32 165.221C571.482 159.326 569.36 151.86 565.64 146.565C559.299 137.542 554.861 127.542 548.344 118.58C541.428 109.071 533.236 97.8401 523.922 90.5956C515.176 83.7934 507.187 76.701 497.103 71.9392C486.827 67.0866 474.989 64.6435 464.39 60.279C432.731 47.2428 399.78 40.4391 366.509 32.8774C342.551 27.4326 316.106 32.2944 291.883 32.2944C282.464 32.2944 273.062 34.2775 263.64 34.6264C256.489 34.8913 247.543 35.6068 240.578 37.5415C231.261 40.1295 221.533 41.1477 212.335 44.2138C205.706 46.4231 195.334 49.6702 189.856 53.9306C185.058 57.6627 178.658 59.2764 174.374 64.0361C170.69 68.1289 166.036 72.9686 161.289 76.0203C154.14 80.616 149.461 89.0784 143.539 95.0005C138.359 100.181 128.819 108.824 126.308 115.73C122.634 125.832 110.861 134.546 104.413 143.067C99.7986 149.164 94.6012 154.832 89.2543 160.298C86.6128 162.998 84.089 168.257 80.833 169.885" stroke="#F9E7D9" stroke-width="30" stroke-linecap="round"/>
<path d="M380.501 498.704C390.81 497.767 402.177 489.151 410.753 484.128C424.174 476.268 436.56 467.386 449.296 458.541C464.33 448.101 479.3 436.862 492.439 424.078C510.906 406.111 520.205 381.616 535.582 361.113" stroke="#F9E7D9" stroke-width="30" stroke-linecap="round"/>
<path d="M63.3427 372.773C63.3427 336.72 59.8447 300.892 59.8447 264.851C59.8447 235.353 68.6467 211.027 83.8129 186.21C91.3073 173.946 102.452 166.923 112.316 157.059C115.499 153.876 118.949 150.516 121.644 147.148C122.642 145.9 122.81 156.414 122.81 158.225" stroke="#F6DECD" stroke-width="30" stroke-linecap="round"/>
<path d="M33.0261 357.615C33.0261 330.429 33.0261 303.244 33.0261 276.058C33.0261 253.755 39.2902 233.947 48.1844 213.935C56.9054 194.313 72.0922 175.774 84.3312 158.29C95.8046 141.899 110.947 128.472 126.567 116.248C150.328 97.6526 176.279 79.5656 205.468 71.3561C213.396 69.1262 221.331 67.9207 229.501 67.2102C232.345 66.9629 243.582 63.8007 246.149 66.3681C247.101 67.3197 245.458 70.3387 247.121 70.7083C252.351 71.8705 258.235 68.64 262.992 67.0159C276.199 62.5061 289.39 57.815 302.378 52.7645C309.809 49.8744 319.288 50.9507 327.123 50.9507C344.111 50.9507 360.176 54.2686 377.003 55.6148C386.143 56.3459 394.841 58.4538 403.562 61.1858C411.5 63.6723 419.79 64.4499 427.66 67.275C441.232 72.1471 453.79 77.4781 466.787 83.8584C478.077 89.401 490.526 96.844 499.435 105.754C507.599 113.917 513.375 123.745 520.489 132.637C559.937 181.948 550.4 252.602 544.004 310.974C541.893 330.228 539.941 347.682 531.566 365.194C529.358 369.811 527.165 374.513 525.088 379.186C521.93 386.293 515.339 392.343 509.93 397.907C504.636 403.353 498.664 407.584 493.864 413.584C488.741 419.988 483.448 424.493 476.115 428.159C465.718 433.357 453.179 434.572 441.717 434.572C439.425 434.572 436.326 432.399 434.138 433.665C430.636 435.693 427.37 443.47 424.745 446.751C417.098 456.31 405.738 458.891 394.234 460.484C361.368 465.035 327.305 462.557 294.151 462.557C276.072 462.557 258.036 463.723 239.995 463.723C229.026 463.723 217.692 464.545 206.764 463.464C197.737 462.571 189.512 458.97 181.111 455.82C156.722 446.674 137.447 429.24 115.814 415.333C103.172 407.206 89.8877 400.03 77.335 391.429C70.1025 386.474 64.8436 380.928 58.6786 375.105C53.8535 370.548 53.6854 372.391 56.9296 377.437C60.6073 383.158 65.4806 388.018 69.7559 393.243C73.3207 397.6 75.7322 402.653 79.6671 406.588C91.112 418.033 104.441 426.775 117.887 435.738C136.669 448.26 160.492 451.451 181.565 458.476C191.723 461.862 201.705 465.578 211.881 468.97C216.048 470.359 220.285 472.337 224.254 474.217C229.767 476.829 235.95 477.019 241.744 478.881C274.948 489.554 312.126 489.375 346.686 489.375C359.801 489.375 372.236 489.457 385.165 487.302C394.905 485.679 405.058 485.583 414.316 481.796C424.03 477.822 431.788 475.909 440.616 469.553C450.838 462.193 459.92 455.432 468.86 446.492C475.385 439.966 481.234 432.951 487.775 426.41C496.963 417.222 501.341 405.669 509.347 395.575C517.363 385.467 528.65 374.508 532.084 361.631C536.122 346.49 536.529 328.826 537.655 313.306C538.927 295.786 538.191 278.513 532.084 261.936C528.351 251.803 525.875 241.115 522.756 230.777C520.415 223.019 518.092 215.35 518.092 207.198" stroke="#F6DECD" stroke-width="30" stroke-linecap="round"/>
<path d="M380.501 59.1129C394.78 59.1129 408.548 58.6082 422.478 62.3518C442.958 67.8558 462.311 78.4852 477.022 94.0936C489.643 107.484 500.765 120.787 511.096 136.07C521.829 151.95 533.916 167.848 542.514 185.043C557.539 215.095 565.227 249.295 562.66 282.989C561.733 295.153 560.135 306.887 557.737 318.877C554.757 333.774 553.943 349.167 549.574 363.834C547.175 371.889 545.099 380.116 542.06 387.931C540.348 392.335 537.914 399.568 537.914 404.256C537.914 408.475 542.682 395.415 543.744 393.502C549.904 382.415 557.284 370.509 560.587 358.198C567.08 333.997 572.195 308.875 576.393 284.155C580.843 257.947 581.057 232.049 581.057 205.514C581.057 188.428 575.652 167.25 568.231 151.877C559.822 134.457 548.036 117.77 533.25 105.495C526.568 99.9477 520.704 94.1115 513.169 89.6886C506.144 85.5657 498.605 82.8465 491.209 79.5183C479.961 74.4569 466.888 71.7551 455.062 68.3763C437.786 63.4403 420.329 58.9165 402.656 55.6148C393.162 53.8412 383.386 54.4488 373.764 54.4488C365.847 54.4488 373.128 62.9406 376.096 66.2386C394.847 87.0724 420.874 102.357 444.956 116.118C455.901 122.373 464.777 128.863 472.876 138.402C480.404 147.268 489.461 154.564 494.253 165.48C503.325 186.143 502.934 213.905 502.934 236.219C502.934 257.704 502.609 279.075 501.768 300.544C500.96 321.143 497.541 341.449 497.103 362.02C496.852 373.832 494.771 385.253 494.771 397.26C494.771 398.258 496.272 412.871 498.01 409.568C500.123 405.553 500.62 399.514 501.897 395.187C507.48 376.266 514.62 357.821 520.424 338.958C529.804 308.474 540.135 276.192 541.348 244.057C541.974 227.444 542.874 209.416 538.821 193.206C533.557 172.15 524.122 151.325 513.428 132.572C502.309 113.076 488.237 100.122 471.386 85.9314C437.67 57.5392 392.675 33.4604 347.852 33.4604C310.188 33.4604 272.339 34.6264 234.813 34.6264C225.483 34.6264 216.047 40.0937 207.282 41.6873C200.833 42.8599 195.339 47.637 189.856 50.8859C184.788 53.8896 177.287 56.4228 172.949 60.2789C164.797 67.5247 156.884 74.0765 149.628 82.3686C141.05 92.1727 131.602 106.557 127.215 118.839C124.446 126.591 119.447 133.884 115.814 141.253C107.714 157.677 102.273 175.723 97.0926 193.206C92.072 210.15 88.9953 227.365 88.9953 245.094C88.9953 261.631 87.4035 279.104 89.2544 295.557C90.6844 308.268 94.4983 320.672 97.1574 333.128C98.0609 337.361 98.3755 342.974 101.239 346.473C102.67 348.222 102.988 349.017 102.988 351.267C102.988 366.447 101.642 381.562 106.486 396.094" stroke="#F6DECD" stroke-width="30" stroke-linecap="round"/>
<path d="M43.5203 350.619C43.5203 341.131 40.9794 335.549 33.2852 329.63C29.0044 326.337 22.0802 316.277 20.459 311.233C18.5125 305.177 19.0338 298.668 19.0338 292.318C19.0338 283.321 18.3519 274.25 20.7829 265.499C22.9462 257.711 23.1251 249.437 25.5117 241.596C29.4562 228.635 37.7303 215.798 43.7794 203.7C48.6595 193.94 53.7955 184.315 58.6786 174.549C62.8928 166.121 66.4228 157.139 72.6709 149.998C78.4653 143.376 83.713 136.748 90.809 131.342C97.7933 126.02 103.199 118.474 111.15 114.499C121.285 109.431 131.754 103.846 143.28 102.256C148.724 101.505 167.275 94.1136 171.524 100.183C172.63 101.764 161.457 110.424 160.77 111.195C145.289 128.59 135.894 152.091 124.753 172.347C110.33 198.572 97.7768 228.125 90.7443 257.337C88.3254 267.385 84.6819 277.143 81.4161 286.941C80.3403 290.168 78.501 292.744 78.501 296.204C78.501 305.104 77.993 278.331 79.2136 269.515C81.0552 256.215 85.3244 244.116 92.4933 232.85" stroke="#F6DECD" stroke-width="30" stroke-linecap="round"/>
<path d="M97.1574 180.379C97.1574 166.76 96.1378 152.795 98.0643 139.309C100.292 123.718 106.017 110.36 116.397 98.1747C123.435 89.9128 131.704 80.6057 141.466 75.4373C171.827 59.3637 207.722 52.5211 241.161 45.8332C268.308 40.4039 295.555 40.31 323.107 40.4566C342.826 40.5615 358.859 45.3038 376.938 52.6998C392.62 59.115 412.111 63.5683 426.235 73.3644C431.829 77.2439 437.878 81.6386 442.689 86.4497C450.977 94.7376 422.505 74.4215 413.214 67.2751C389.769 49.2403 365.164 37.793 337.358 27.8894C327.269 24.2962 316.768 21.8002 306.135 21.8002C302.893 21.8002 302.189 21.8002 306.005 21.8002C317.86 21.8002 329.714 21.8002 341.569 21.8002C363.904 21.8002 386.214 24.0214 408.486 25.5574C419.556 26.3209 430.583 27.8193 441.393 30.2215C453.041 32.8099 468.374 41.8028 477.281 49.72C496.807 67.0768 513.941 84.8225 523.922 109.511C531.716 128.79 542.923 146.649 547.89 166.97C552.41 185.461 553.003 203.447 553.073 222.615C553.168 248.958 553.073 275.303 553.073 301.646" stroke="#F6DECD" stroke-width="30" stroke-linecap="round"/>
<path d="M556.571 400.758C556.391 402.198 550.128 404.303 548.408 405.163C543.455 407.64 538.17 412.76 533.25 415.916C509.523 431.137 486.609 447.362 462.058 461.391C443.926 471.752 423.152 478.258 403.757 485.877C388.894 491.716 373.772 496.965 358.347 501.036C331.671 508.075 304.233 510.364 276.725 510.364C265.077 510.364 252.202 506.354 241.68 501.619C221.938 492.735 202.595 483.241 183.443 473.31C175.504 469.194 168.151 463.959 159.864 460.484C151.627 457.03 142.884 455.258 134.47 452.581C119.814 447.918 106.765 444.698 95.7323 433.666C78.5876 416.521 61.932 397.278 55.1158 373.421C54.7732 372.222 55.3432 374.155 56.3466 375.105C58.9556 377.577 62.405 379.312 65.2213 381.583C80.062 393.551 96.3167 400.819 114.389 406.329C133.448 412.14 156.818 411.328 176.317 412.418C247.478 416.395 318.813 421.7 390.088 417.665C419.193 416.018 449.776 413.823 477.929 405.94C496.759 400.668 517.223 399.592 536.748 399.592C543.685 399.592 551.419 396.957 558.32 398.491C570.526 401.203 553.973 411.068 550.741 415.916" stroke="#F6DECD" stroke-width="30" stroke-linecap="round"/>
<path d="M537.914 433.406C542.215 428.628 545.154 421.69 548.408 416.175C551.243 411.373 555.041 407.55 556.83 402.183C559.125 395.295 564.277 388.526 565.834 381.518C568.064 371.482 570.308 358.801 567.972 348.287C566.084 339.792 563.816 330.189 563.567 321.468C563.269 311.048 558.903 300.528 558.903 290.05C558.903 287.362 558.519 284.423 557.672 288.237C556.628 292.933 554.809 297.661 553.591 302.423C544.578 337.654 524.813 368.659 508.764 400.758" stroke="#F6DECD" stroke-width="30" stroke-linecap="round"/>
<path d="M240.578 502.202C225.83 502.202 209.16 503.19 196.01 495.206C182.29 486.876 167.358 479.635 153.127 472.144C138.343 464.364 125.069 454.48 110.891 445.974C89.0469 432.867 75.9627 414.864 61.0107 394.928" stroke="#F6DECD" stroke-width="30" stroke-linecap="round"/>
<path d="M561.235 398.426C561.235 389.746 565.716 383.224 567.972 375.105C569.982 367.869 570.148 360.309 571.988 352.951C574.83 341.583 578.725 327.833 578.725 316.221C578.725 307.288 577.559 297.884 577.559 289.338C577.559 280.958 574.061 272.743 574.061 264.333" stroke="#F6DECD" stroke-width="30" stroke-linecap="round"/>
<path d="M550.741 146.565C550.741 166.839 551.907 186.931 551.907 207.198" stroke="#F6DECD" stroke-width="30" stroke-linecap="round"/>
</svg>
